<?xml version="1.0" encoding="UTF-8" standalone="no"?>
<svg
   xmlns:dc="http://purl.org/dc/elements/1.1/"
   xmlns:cc="http://creativecommons.org/ns#"
   xmlns:rdf="http://www.w3.org/1999/02/22-rdf-syntax-ns#"
   xmlns:svg="http://www.w3.org/2000/svg"
   xmlns="http://www.w3.org/2000/svg"
   version="1.1"
   id="svg2"
   viewBox="0 0 475.84702 116.48597"
   height="124.25169"
   width="507.57016">
  <defs
     id="defs4" />
  <metadata
     id="metadata7">
    <rdf:RDF>
      <cc:Work
         rdf:about="">
        <dc:format>image/svg+xml</dc:format>
        <dc:type
           rdf:resource="http://purl.org/dc/dcmitype/StillImage" />
        <dc:title></dc:title>
      </cc:Work>
    </rdf:RDF>
  </metadata>
  <g
     transform="translate(35990.579,-1063.0773)"
     id="layer1">
    <path
       id="path4197"
       d=""
       style="fill:#ff0000;fill-opacity:1;stroke:none;stroke-width:25;stroke-miterlimit:4;stroke-dasharray:none;stroke-opacity:1" />
    <path
       id="path4199"
       d=""
       style="fill:#ff0000;fill-opacity:1;stroke:none;stroke-width:25;stroke-miterlimit:4;stroke-dasharray:none;stroke-opacity:1" />
    <path
       id="path4212"
       d=""
       style="fill:#ffffff;fill-opacity:1;stroke:none;stroke-width:25;stroke-miterlimit:4;stroke-dasharray:none;stroke-opacity:1" />
    <flowRoot
       style="font-style:normal;font-weight:normal;font-size:40px;line-height:1.25;font-family:sans-serif;letter-spacing:0px;word-spacing:0px;fill:#000000;fill-opacity:1;stroke:none"
       id="flowRoot4520"
       xml:space="preserve"><flowRegion
         id="flowRegion4522"><rect
           y="-656"
           x="352"
           height="106"
           width="489"
           id="rect4524" /></flowRegion><flowPara
         id="flowPara4526" /></flowRoot>    <g
       id="g4541">
      <path
         style="fill:#c8ab37;fill-opacity:1;fill-rule:evenodd;stroke:none;stroke-width:0.30129436px;stroke-linecap:butt;stroke-linejoin:miter;stroke-opacity:1"
         d="m -35882.223,1132.1335 c 0.887,-20.3536 0.887,-20.3536 0.887,-20.3536 l 0.975,7.4922 -0.03,4.7084 -0.589,4.3301 z"
         id="path4219-7" />
      <text
         id="text178"
         y="1080.3641"
         x="-35858.719"
         style="font-style:normal;font-weight:normal;font-size:5.43999004px;line-height:0.01%;font-family:sans-serif;letter-spacing:0px;word-spacing:0px;fill:#000000;fill-opacity:1;stroke:none;stroke-width:0.45333251px;stroke-linecap:butt;stroke-linejoin:miter;stroke-opacity:1"
         xml:space="preserve"><tspan
           style="stroke-width:0.45333251px"
           id="tspan162"
           y="1.4133945"
           x="0"><tspan
             id="tspan160"
             style="font-style:normal;font-variant:normal;font-weight:normal;font-stretch:normal;font-size:18.13330078px;line-height:1.25;font-family:Consolas;-inkscape-font-specification:Consolas;stroke-width:0.45333251px"
             y="1080.3641"
             x="-35858.719" /></tspan><tspan
           style="stroke-width:0.45333251px"
           id="tspan166"
           y="1.4139384"
           x="0"><tspan
             id="tspan164"
             style="font-style:normal;font-variant:normal;font-weight:normal;font-stretch:normal;font-size:18.13330078px;line-height:1.25;font-family:Consolas;-inkscape-font-specification:Consolas;stroke-width:0.45333251px"
             y="1080.3646"
             x="-35858.719" /></tspan><tspan
           style="stroke-width:0.45333251px"
           id="tspan170"
           y="1.4144824"
           x="0"><tspan
             id="tspan168"
             style="font-style:normal;font-variant:normal;font-weight:normal;font-stretch:normal;font-size:18.13330078px;line-height:1.25;font-family:Consolas;-inkscape-font-specification:Consolas;stroke-width:0.45333251px"
             y="1080.3652"
             x="-35858.719" /></tspan><tspan
           style="stroke-width:0.45333251px"
           id="tspan176"
           y="1122.3362"
           x="-35858.719"><tspan
             id="tspan172"
             style="font-style:normal;font-variant:normal;font-weight:normal;font-stretch:normal;font-size:50px;line-height:1.25;font-family:Consolas;-inkscape-font-specification:Consolas;fill:#c8ab37;fill-opacity:1;stroke-width:0.45333251px"
             y="1122.3362"
             x="-35858.719">OCR-D</tspan><tspan
             id="tspan174"
             style="font-style:normal;font-variant:normal;font-weight:normal;font-stretch:normal;font-size:50px;line-height:1.25;font-family:Consolas;-inkscape-font-specification:Consolas;fill:#c8ab37;fill-opacity:1;stroke-width:0.45333251px"
             y="1122.3362"
             x="-35721.023"
             dx="0" /></tspan></text>
      <flowRoot
         xml:space="preserve"
         id="flowRoot4167"
         style="font-style:normal;font-weight:normal;line-height:0.01%;font-family:sans-serif;letter-spacing:0px;word-spacing:0px;fill:#c8ab37;fill-opacity:1;stroke:none;stroke-width:1px;stroke-linecap:butt;stroke-linejoin:miter;stroke-opacity:1"
         transform="matrix(0.30129437,0,0,0.30129437,-36048.035,976.28064)"><flowRegion
           id="flowRegion4169"><rect
             id="rect4171"
             width="421.61984"
             height="281.07993"
             x="401.94907"
             y="430.24026"
             style="fill:#c8ab37;fill-opacity:1" /></flowRegion><flowPara
           id="flowPara4173"
           style="font-style:normal;font-variant:normal;font-weight:normal;font-stretch:normal;font-size:95.97850037px;line-height:1.25;font-family:'Theuerdank Fraktur';-inkscape-font-specification:'Theuerdank Fraktur';fill:#c8ab37;fill-opacity:1">C</flowPara></flowRoot>      <flowRoot
         xml:space="preserve"
         id="flowRoot4175"
         style="font-style:normal;font-weight:normal;line-height:0.01%;font-family:sans-serif;letter-spacing:0px;word-spacing:0px;fill:#c8ab37;fill-opacity:1;stroke:none;stroke-width:1px;stroke-linecap:butt;stroke-linejoin:miter;stroke-opacity:1"
         transform="matrix(0.58478537,0,0,0.58478537,-35972.085,1024.5794)"><flowRegion
           id="flowRegion4177"><rect
             id="rect4179"
             width="135.71428"
             height="94.285713"
             x="104.28571"
             y="143.79077"
             style="fill:#c8ab37;fill-opacity:1" /></flowRegion><flowPara
           id="flowPara4181"
           style="font-style:normal;font-variant:normal;font-weight:normal;font-stretch:normal;font-size:40px;line-height:1.25;font-family:'Walbaum Fraktur';-inkscape-font-specification:'Walbaum Fraktur';fill:#c8ab37;fill-opacity:1">R</flowPara></flowRoot>      <path
         style="fill:#c8ab37;fill-opacity:1;stroke:none;stroke-width:6.64444447;stroke-miterlimit:4;stroke-dasharray:none;stroke-opacity:1"
         d="m -35939.673,1179.3703 c -11.166,-1.7339 -24.588,-8.0916 -33.892,-16.0548 -7.852,-6.7191 -13.6,-16.7136 -16.14,-28.0618 -0.755,-3.3718 -0.876,-4.9302 -0.874,-11.2409 0,-6.8536 0.07,-7.5676 1.043,-11.0632 4.189,-15.0264 14.723,-26.9901 31.078,-35.2934 2.996,-1.5213 8.237,-3.9928 11.647,-5.4923 3.409,-1.4995 9.142,-4.1417 12.738,-5.8715 3.596,-1.7299 6.595,-3.1452 6.663,-3.1452 0.07,0 0.17,5.2236 0.225,11.6081 l 0.1,11.6081 4.696,-4.1112 c 5.341,-4.6748 4.606,-4.4836 10.323,-2.6881 12.898,4.0503 23.897,13.8654 28.75,25.6538 2.381,5.7849 2.804,8.1573 2.783,15.6013 -0.02,6.0701 -0.119,7.1365 -0.999,10.4095 -1.577,5.8723 -4.961,12.3392 -8.608,16.4541 -1.267,1.4301 -1.264,1.4137 0.385,-2.4422 1.816,-4.246 2.485,-8.2177 2.471,-14.6528 -0.01,-5.1544 -0.104,-5.9084 -1.072,-8.8293 -2.681,-8.09 -6.198,-13.1908 -17.089,-24.7867 -3.596,-3.8286 -7.719,-8.4827 -9.162,-10.3425 -1.443,-1.8598 -2.78,-3.3358 -2.971,-3.2801 -0.191,0.056 -2.535,1.9824 -5.209,4.2814 l -4.862,4.1799 v 18.3816 18.3816 l -11.177,11.6491 c -6.148,6.407 -11.219,11.7633 -11.27,11.9028 -0.152,0.4159 6.173,3.8816 9.582,5.2504 5.14,2.064 11.012,3.3703 17.315,3.8525 5.411,0.4138 7.345,0.3312 14.336,-0.6124 1.207,-0.163 1.161,-0.1124 -0.564,0.6183 -3.678,1.5581 -12.167,3.352 -15.874,3.3543 l -1.972,10e-4 v 7.2794 7.2795 l -1.174,0.2348 c -1.234,0.2468 -9.613,0.2368 -11.225,-0.013 v 0 z m -11.838,-31.7234 c 2.04,-2.7703 3.069,-5.8978 3.628,-11.0229 0.441,-4.0496 0.307,-58.9625 -0.145,-59.4151 -0.297,-0.2961 -5.209,2.6402 -8.578,5.1271 -1.358,1.0022 -3.902,3.3091 -5.654,5.1266 -5.232,5.4274 -8.455,11.455 -10.189,19.0572 -1.07,4.6879 -1.141,13.0457 -0.148,17.3052 1.783,7.6443 5.399,13.8849 11.584,19.9909 2.623,2.5903 6.938,6.09 7.534,6.1111 0.155,0.01 1.041,-1.0205 1.968,-2.2801 z"
         id="path4211" />
      <path
         style="fill:#c8ab37;fill-opacity:1;fill-rule:evenodd;stroke:none;stroke-width:0.30129436px;stroke-linecap:butt;stroke-linejoin:miter;stroke-opacity:1"
         d="m -35929.536,1164.5035 c 22.437,-4.2297 22.437,-4.2297 22.437,-4.2297 l -7.955,3.1431 -5.149,1.192 -4.867,0.4118 z"
         id="path4219" />
      <path
         style="fill:#000000;fill-opacity:1;stroke:#000000;stroke-width:4.61837149;stroke-miterlimit:4;stroke-dasharray:none;stroke-opacity:1"
         d="m -35925.008,1065.5709 v 4.8361 4.8366 l 3.682,0.4089 c 10.806,1.2016 20.657,5.7616 28.221,12.5493 -0.368,-1.248 -0.785,-2.6332 -1.115,-3.4955 -0.219,-0.5711 -0.541,-1.0985 -0.764,-1.6681 -0.413,-1.0579 -0.599,-2.1844 -0.797,-3.296 -0.03,-0.1436 -0.05,-0.2893 -0.09,-0.4311 -0.02,-0.077 -0.237,-0.7132 -0.247,-0.8715 0,-0.087 -0.01,-0.2448 -0.01,-0.3866 -0.839,-0.3826 -1.814,-0.3867 -2.691,-0.6025 -0.507,-0.096 -1.02,-0.1651 -1.522,-0.2872 -0.404,-0.098 -0.793,-0.2533 -1.192,-0.3732 -0.869,-0.2613 -1.213,-0.3609 -1.432,-0.4234 0.03,0 -0.213,-0.097 -1.308,-0.4703 -0.517,-0.1765 -1.05,-0.308 -1.562,-0.4978 -0.285,-0.1055 -0.55,-0.2576 -0.826,-0.3866 -0.162,-0.1031 -0.345,-0.1791 -0.486,-0.3094 -0.04,-0.041 0.23,0.054 0.178,0.025 -0.125,-0.07 -0.271,-0.093 -0.402,-0.1498 -0.151,-0.065 -0.444,-0.3247 -0.505,-0.3778 -0.01,-0.011 0.03,0.01 0.05,0.016 -0.568,-0.4974 -0.648,-0.694 -0.898,-1.3781 -0.278,-0.7633 -0.172,-0.2627 -0.272,-0.9516 0.02,0.022 0.04,0.064 0.07,0.067 0.02,0 0,-0.044 0,-0.062 -0.08,-0.1549 -0.199,-0.2936 -0.277,-0.4516 -0.12,-0.2412 -0.346,-0.9141 -0.412,-1.147 -0.06,-0.2238 -0.112,-0.4524 -0.167,-0.6785 -0.157,-0.6386 -0.04,-1.1196 0.204,-1.3991 -4.129,-1.2196 -8.461,-2.0334 -12.976,-2.4291 l -2.441,-0.2141 z m 16.852,3.0849 c 0.05,0.1102 0.1,0.2294 0.133,0.3673 0.153,0.5739 0.27,1.1849 0.541,1.722 0.213,0.4223 0.02,-0.5531 0.28,0.5135 0.05,0.2042 0.04,0.4181 0.07,0.627 0.177,0.2419 0.169,0.7885 0.464,0.8675 0.04,0.046 0.08,0.093 0.123,0.1386 0,-0.041 0.09,0.067 0.137,0.086 0.02,0.01 -0.05,-0.052 -0.04,-0.041 0.67,0.4567 0.349,0.353 0.704,0.4521 0.23,0.1057 0.452,0.2316 0.69,0.3171 0.438,0.157 0.893,0.2602 1.334,0.4088 1.17,0.3947 1.488,0.5138 1.493,0.527 0.221,0.063 0.444,0.1268 1.209,0.3556 0.411,0.1232 0.812,0.2825 1.23,0.3843 0.428,0.1045 0.868,0.1557 1.302,0.2334 1.169,0.2294 2.431,0.3104 3.479,0.9353 0.111,0.066 0.231,0.125 0.32,0.2182 0.15,0.155 0.259,0.3448 0.388,0.517 0.03,0.3484 0.1,0.5836 0.05,0.8429 0.02,0.036 0.01,0.1554 0.03,0.2094 0.23,0.7659 0.05,0.044 0.266,1.0054 0.193,1.0587 0.355,2.1366 0.757,3.1428 0.196,0.4911 0.485,0.9427 0.674,1.4365 0.585,1.5224 1.22,3.7872 1.677,5.3262 0.139,0.509 0.278,1.0269 0.418,1.5465 5.454,5.7151 9.413,12.7048 11.238,20.4339 2.497,10.5778 0.766,22.2976 -4.679,31.676 -5.847,10.0716 -15.857,17.9799 -27.459,21.6943 -3.46,1.1079 -10.083,2.3865 -12.363,2.3865 h -1.314 v 4.9226 4.9232 l 2.61,-0.2299 c 14.219,-1.2523 27.003,-6.8678 36.668,-16.1067 8.545,-8.1673 13.513,-16.7887 16.169,-28.0559 0.883,-3.7488 0.947,-4.4967 0.947,-11.2566 0,-6.7599 -0.06,-7.5078 -0.947,-11.2566 -2.568,-10.8932 -7.662,-19.8712 -15.618,-27.5272 -6.594,-6.3442 -14.322,-10.9558 -22.977,-13.7425 z"
         id="path4164" />
      <text
         id="text192"
         y="1145.4779"
         x="-35855.527"
         style="font-style:normal;font-weight:normal;font-size:20.16259956px;line-height:1;font-family:sans-serif;letter-spacing:0px;word-spacing:0px;fill:#000000;fill-opacity:1;stroke:none;stroke-width:0.50406498"
         xml:space="preserve"><tspan
           style="stroke-width:0.50406498"
           id="tspan184"
           y="1145.4779"
           x="-35855.527"><tspan
             id="tspan180"
             style="font-style:normal;font-variant:normal;font-weight:normal;font-stretch:normal;font-size:18.75px;line-height:1;font-family:Consolas;-inkscape-font-specification:Consolas;fill:#c8ab37;fill-opacity:1;stroke-width:0.50406498"
             y="1145.4779"
             x="-35855.527">DFG-funded Initiative for Optical </tspan><tspan
             id="tspan182"
             style="font-style:normal;font-variant:normal;font-weight:normal;font-stretch:normal;font-size:18.75px;line-height:1;font-family:Consolas;-inkscape-font-specification:Consolas;fill:#c8ab37;fill-opacity:1;stroke-width:0.50406498"
             y="1145.4779"
             x="-35504.406"
             dx="0" /></tspan><tspan
           style="stroke-width:0.50406498"
           id="tspan190"
           y="1165.6405"
           x="-35855.527"><tspan
             id="tspan186"
             style="font-style:normal;font-variant:normal;font-weight:normal;font-stretch:normal;font-size:18.75px;line-height:1;font-family:Consolas;-inkscape-font-specification:Consolas;fill:#c8ab37;fill-opacity:1;stroke-width:0.50406498"
             y="1165.6405"
             x="-35855.527">Character Recognition Development</tspan><tspan
             id="tspan188"
             style="font-style:normal;font-variant:normal;font-weight:normal;font-stretch:normal;font-size:18.75px;line-height:1;font-family:Consolas;-inkscape-font-specification:Consolas;fill:#c8ab37;fill-opacity:1;stroke-width:0.50406498"
             y="1165.6405"
             x="-35514.73"
             dx="0" /></tspan></text>
    </g>
  </g>
</svg>
