<?xml version="1.0" encoding="UTF-8" standalone="no"?>
<svg
   xmlns:dc="http://purl.org/dc/elements/1.1/"
   xmlns:cc="http://creativecommons.org/ns#"
   xmlns:rdf="http://www.w3.org/1999/02/22-rdf-syntax-ns#"
   xmlns:svg="http://www.w3.org/2000/svg"
   xmlns="http://www.w3.org/2000/svg"
   viewBox="0 0 264 121.33333"
   height="121.33333"
   width="264"
   xml:space="preserve"
   id="svg2"
   version="1.1"><metadata
     id="metadata8"><rdf:RDF><cc:Work
         rdf:about=""><dc:format>image/svg+xml</dc:format><dc:type
           rdf:resource="http://purl.org/dc/dcmitype/StillImage" /></cc:Work></rdf:RDF></metadata><defs
     id="defs6" /><g
     transform="matrix(1.3333333,0,0,-1.3333333,0,121.33333)"
     id="g10"><g
       transform="scale(0.1)"
       id="g12"><path
         id="path14"
         style="fill:#000000;fill-opacity:1;fill-rule:evenodd;stroke:none"
         d="m 1973.98,908.758 h -462.96 v -157.68 h 135.36 V 207.477 h 192.24 v 543.601 h 135.36 z M 1464.94,208.199 H 1272.7 v 700.559 h 192.24 z m -224.64,0 H 1026.46 L 772.297,481.078 v 156.238 l 246.243,272.161 h 220.32 L 955.176,556.68 1240.3,208.199" /><path
         id="path16"
         style="fill:#000000;fill-opacity:1;fill-rule:evenodd;stroke:none"
         d="m 726.219,208.199 v 0 0 z" /><path
         id="path18"
         style="fill:#000000;fill-opacity:1;fill-rule:evenodd;stroke:none"
         d="m 726.219,208.199 v 0 0 z" /><path
         id="path20"
         style="fill:#009682;fill-opacity:1;fill-rule:evenodd;stroke:none"
         d="M 178.297,652.438 C 141.578,607.797 109.898,558.836 85.418,506.277 L 726.219,208.199 178.297,652.438" /><path
         id="path22"
         style="fill:#009682;fill-opacity:1;fill-rule:evenodd;stroke:none"
         d="M 726.219,208.199 427.418,843.957 C 374.137,819.477 325.176,789.238 280.535,753.238 L 726.219,208.199 v 0" /><path
         id="path24"
         style="fill:#000000;fill-opacity:1;fill-rule:evenodd;stroke:none"
         d="m 726.219,208.199 0.719,700.559 c -2.161,0 -3.602,0 -5.762,0 -56.879,0 -112.321,-7.199 -165.598,-20.16 L 726.219,208.199 v 0" /><path
         id="path26"
         style="fill:#000000;fill-opacity:1;fill-rule:evenodd;stroke:none"
         d="m 726.219,208.199 v 0 0 z" /><path
         id="path28"
         style="fill:#000000;fill-opacity:1;fill-rule:evenodd;stroke:none"
         d="m 726.219,208.199 v 0 0 z" /><path
         id="path30"
         style="fill:#009682;fill-opacity:1;fill-rule:evenodd;stroke:none"
         d="M 39.3359,379.559 C 24.9375,324.84 17.7383,267.238 17.0156,208.199 H 726.219 L 39.3359,379.559" /><path
         id="path32"
         style="fill:#000000;fill-opacity:1;fill-rule:nonzero;stroke:none"
         d="M 16.5234,34.0273 H 29.0039 V 76.7109 L 67.8203,34.0273 H 86.0391 L 41.8594,79.957 82.793,121.145 H 66.1953 L 29.0039,82.8281 V 121.145 H 16.5234 V 34.0273" /><path
         id="path34"
         style="fill:#000000;fill-opacity:1;fill-rule:nonzero;stroke:none"
         d="m 100.906,83.2031 c 1.602,1.3321 3.414,2.4961 5.426,3.4532 2.02,0.9765 4.145,1.7265 6.367,2.246 2.227,0.5196 4.453,0.7891 6.676,0.7891 3.895,0 6.992,-0.6211 9.301,-1.8516 2.308,-1.246 3.953,-3.0976 4.949,-5.5507 1.02,-2.4766 1.496,-5.5352 1.477,-9.1953 -1.52,0.082 -2.934,0.1445 -4.262,0.1679 -1.313,0.0391 -2.641,0.0625 -3.953,0.0821 -1.313,0 -2.746,0 -4.266,0 -2.453,0 -5.035,-0.2071 -7.715,-0.6446 -2.703,-0.4375 -5.347,-1.1445 -7.926,-2.1445 -2.578,-0.9766 -4.91,-2.2656 -7.0112,-3.8867 -2.0977,-1.625 -3.7618,-3.6211 -5.0118,-5.9727 -1.25,-2.3711 -1.8711,-5.1367 -1.914,-8.3203 0.0429,-4.5937 1.039,-8.3828 2.9961,-11.293 1.9765,-2.9336 4.6989,-5.0976 8.1949,-6.4922 3.493,-1.371 7.532,-2.0585 12.149,-2.0585 2.68,0.0195 5.097,0.3515 7.219,0.9804 2.14,0.6211 4.011,1.4336 5.636,2.4297 1.621,1 2.992,2.0625 4.137,3.1641 1.125,1.1211 2.039,2.164 2.727,3.1601 h 0.25 v -8.2383 h 10.984 c -0.086,0.6055 -0.168,1.4375 -0.25,2.4571 -0.063,1.039 -0.125,2.3672 -0.168,3.9922 -0.063,1.6211 -0.082,3.6406 -0.082,6.0312 v 26.336 c 0.019,5.7812 -0.836,10.6289 -2.582,14.539 -1.746,3.9102 -4.512,6.8438 -8.277,8.8203 -3.766,1.9766 -8.676,2.9727 -14.727,2.9727 -4.059,-0.0195 -7.82,-0.5781 -11.336,-1.6836 -3.496,-1.082 -6.699,-2.5156 -9.633,-4.3047 z m 34.196,-24.4609 c 0,-3.1836 -0.664,-6.0547 -2.016,-8.5508 -1.332,-2.5156 -3.328,-4.4922 -5.949,-5.9492 -2.621,-1.457 -5.887,-2.207 -9.758,-2.2266 -1.352,0 -2.723,0.2305 -4.117,0.668 -1.371,0.457 -2.66,1.1016 -3.828,1.9766 -1.164,0.8906 -2.098,1.9726 -2.809,3.2421 -0.703,1.293 -1.078,2.7891 -1.102,4.4727 0.043,2.2227 0.602,4.0977 1.688,5.5938 1.078,1.4765 2.516,2.664 4.262,3.5585 1.746,0.8946 3.621,1.5586 5.617,2.0196 1.996,0.4336 3.93,0.7265 5.781,0.8711 1.852,0.1445 3.434,0.207 4.742,0.1875 1.25,0 2.496,-0.043 3.746,-0.125 1.25,-0.0625 2.496,-0.1055 3.743,-0.125 v -5.6133" /><path
         id="path36"
         style="fill:#000000;fill-opacity:1;fill-rule:nonzero;stroke:none"
         d="m 165.945,34.0273 h 11.731 v 28.9571 c 0.019,5.3476 0.75,9.9648 2.164,13.832 1.437,3.8711 3.433,6.8633 6.031,8.9453 2.578,2.0977 5.637,3.1602 9.152,3.1836 1.02,0.0195 2.082,-0.0625 3.204,-0.2305 1.125,-0.1679 2.207,-0.457 3.289,-0.8945 v 10.4844 c -0.813,0.168 -1.602,0.3125 -2.332,0.457 -0.746,0.125 -1.559,0.2266 -2.414,0.2891 -0.848,0.0859 -1.852,0.125 -2.993,0.125 -2.269,-0.0195 -4.472,-0.4961 -6.617,-1.4766 -2.121,-0.9531 -4.055,-2.2851 -5.781,-3.9922 -1.746,-1.707 -3.141,-3.6601 -4.203,-5.8867 h -0.25 v 9.8594 H 165.945 V 34.0273" /><path
         id="path38"
         style="fill:#000000;fill-opacity:1;fill-rule:nonzero;stroke:none"
         d="m 215.258,34.0273 h 11.7305 v 93.6055 H 215.258 Z" /><path
         id="path40"
         style="fill:#000000;fill-opacity:1;fill-rule:nonzero;stroke:none"
         d="m 242.355,36.0234 c 2.704,-1.3906 5.532,-2.3476 8.504,-2.8281 2.957,-0.4765 5.954,-0.707 8.969,-0.664 2.871,0 5.613,0.3945 8.258,1.1835 2.641,0.793 5.012,2.0196 7.113,3.6407 2.082,1.6211 3.746,3.6836 4.973,6.1797 1.226,2.4961 1.851,5.4492 1.871,8.8398 -0.02,2.8906 -0.539,5.3438 -1.516,7.3633 -1.004,2.0195 -2.312,3.7265 -3.957,5.1406 -1.621,1.3906 -3.429,2.5742 -5.386,3.5977 -1.954,0.9961 -3.911,1.9336 -5.868,2.7851 -1.953,0.875 -3.761,1.7696 -5.382,2.7031 -1.645,0.961 -2.957,2.0625 -3.954,3.3282 -0.976,1.2695 -1.5,2.8281 -1.519,4.6601 0.019,1.75 0.562,3.2032 1.582,4.3477 1.016,1.1445 2.391,1.9961 4.074,2.5586 1.684,0.5625 3.559,0.832 5.574,0.832 0.711,0 1.625,-0.1055 2.727,-0.2695 1.102,-0.1875 2.27,-0.4375 3.496,-0.75 1.246,-0.2891 2.391,-0.6446 3.492,-1.0391 1.082,-0.375 1.957,-0.7695 2.641,-1.1875 l 1,10.2383 c -2.289,0.7031 -4.617,1.2891 -6.969,1.7656 -2.371,0.4571 -4.906,0.7071 -7.633,0.7266 -3.16,0 -6.113,-0.3906 -8.82,-1.2031 -2.723,-0.7891 -5.094,-2.0196 -7.133,-3.6211 -2.039,-1.6211 -3.64,-3.6602 -4.765,-6.1172 -1.145,-2.4531 -1.727,-5.3438 -1.747,-8.6485 0.02,-2.5429 0.543,-4.7226 1.54,-6.5976 0.976,-1.8516 2.289,-3.4531 3.929,-4.8242 1.645,-1.3516 3.434,-2.5586 5.391,-3.6211 1.953,-1.0391 3.91,-2.0391 5.863,-2.9532 1.957,-0.9335 3.766,-1.8945 5.387,-2.871 1.644,-0.9766 2.953,-2.0782 3.953,-3.3047 0.98,-1.2071 1.5,-2.6446 1.52,-4.2852 -0.02,-1.707 -0.395,-3.1406 -1.125,-4.3281 -0.704,-1.1641 -1.665,-2.1016 -2.848,-2.8086 -1.184,-0.707 -2.477,-1.207 -3.871,-1.5195 -1.395,-0.3125 -2.785,-0.4571 -4.137,-0.4571 -1.164,0 -2.578,0.168 -4.266,0.5 -1.683,0.3321 -3.433,0.8321 -5.242,1.4961 -1.832,0.668 -3.515,1.5 -5.097,2.4961 l -0.622,-10.4844" /><path
         id="path42"
         style="fill:#000000;fill-opacity:1;fill-rule:nonzero;stroke:none"
         d="m 295.535,34.0273 h 11.735 v 28.9571 c 0.019,5.3476 0.746,9.9648 2.16,13.832 1.437,3.8711 3.433,6.8633 6.031,8.9453 2.582,2.0977 5.641,3.1602 9.156,3.1836 1.02,0.0195 2.078,-0.0625 3.203,-0.2305 1.121,-0.1679 2.203,-0.457 3.285,-0.8945 v 10.4844 c -0.812,0.168 -1.601,0.3125 -2.328,0.457 -0.75,0.125 -1.562,0.2266 -2.414,0.2891 -0.851,0.0859 -1.851,0.125 -2.996,0.125 -2.265,-0.0195 -4.472,-0.4961 -6.613,-1.4766 -2.121,-0.9531 -4.059,-2.2851 -5.785,-3.9922 -1.746,-1.707 -3.141,-3.6601 -4.199,-5.8867 h -0.25 v 9.8594 H 295.535 V 34.0273" /><path
         id="path44"
         style="fill:#000000;fill-opacity:1;fill-rule:nonzero;stroke:none"
         d="M 399.637,97.6797 H 387.906 V 68.2266 c 0,-3.8907 -0.371,-7.4258 -1.144,-10.6289 -0.77,-3.2032 -1.934,-5.9532 -3.516,-8.2774 -1.582,-2.332 -3.598,-4.1211 -6.031,-5.3906 -2.434,-1.2695 -5.324,-1.8945 -8.652,-1.9141 -3.391,0.2071 -6.075,1.168 -8.051,2.8711 -1.977,1.7031 -3.367,4.2031 -4.203,7.4883 -0.852,3.2891 -1.246,7.4063 -1.227,12.3555 v 32.9492 h -11.73 V 59.8633 c 0,-5.7188 0.832,-10.6055 2.515,-14.6875 1.688,-4.0742 4.305,-7.1953 7.821,-9.3594 3.519,-2.1601 8.031,-3.2656 13.5,-3.2851 2.976,0.0195 5.847,0.4765 8.57,1.3945 2.722,0.9375 5.16,2.2656 7.281,3.9922 2.141,1.7265 3.805,3.8086 4.992,6.2187 h 0.25 V 34.0273 h 11.356 v 63.6524" /><path
         id="path46"
         style="fill:#000000;fill-opacity:1;fill-rule:nonzero;stroke:none"
         d="m 418.875,34.0273 h 11.73 v 29.4571 c 0,3.8867 0.375,7.4258 1.145,10.6289 0.77,3.2031 1.934,5.9453 3.516,8.2773 1.578,2.3282 3.597,4.1172 6.031,5.3867 2.433,1.2696 5.324,1.8946 8.656,1.9141 3.391,-0.207 6.07,-1.1445 8.047,-2.8711 1.98,-1.7031 3.371,-4.1992 4.203,-7.4844 0.856,-3.289 1.246,-7.4062 1.227,-12.3593 V 34.0273 h 11.73 v 37.8165 c 0.024,5.7226 -0.828,10.6093 -2.515,14.6875 -1.684,4.0781 -4.305,7.1992 -7.821,9.3593 -3.515,2.1641 -8.008,3.2657 -13.5,3.2852 -4.472,-0.0195 -8.445,-0.9336 -11.961,-2.7656 -3.515,-1.8321 -6.343,-4.4493 -8.508,-7.8399 h -0.25 v 39.0627 h -11.73 V 34.0273" /><path
         id="path48"
         style="fill:#000000;fill-opacity:1;fill-rule:nonzero;stroke:none"
         d="m 543.199,48.3789 c -0.73,-0.5976 -1.789,-1.2656 -3.183,-1.9922 -1.395,-0.7304 -2.973,-1.4179 -4.786,-2.082 -1.808,-0.668 -3.703,-1.207 -5.699,-1.6211 -1.996,-0.4375 -3.972,-0.6484 -5.929,-0.668 -2.809,0.0196 -5.45,0.5196 -7.965,1.5391 -2.496,1.0195 -4.746,2.4766 -6.68,4.3476 -1.953,1.8711 -3.492,4.0977 -4.617,6.6954 -1.102,2.6054 -1.684,5.4726 -1.707,8.6367 h 45.433 c 0.02,5.1367 -0.461,9.9023 -1.394,14.2461 -0.957,4.3672 -2.52,8.1562 -4.68,11.4023 -2.183,3.2422 -5.054,5.7578 -8.676,7.5508 -3.597,1.8086 -8.05,2.7227 -13.336,2.7422 -4.511,-0.0195 -8.585,-0.8086 -12.25,-2.3672 -3.64,-1.582 -6.781,-3.7891 -9.402,-6.6602 -2.617,-2.8671 -4.637,-6.2578 -6.031,-10.1914 -1.414,-3.9101 -2.121,-8.2343 -2.145,-12.9804 0,-5.1993 0.649,-9.8985 1.977,-14.125 1.312,-4.2227 3.332,-7.8399 6.035,-10.8555 2.703,-3.0391 6.113,-5.3672 10.254,-6.9883 4.16,-1.6445 9.047,-2.457 14.684,-2.4765 3.472,0.0195 6.429,0.25 8.882,0.707 2.434,0.457 4.555,0.9961 6.348,1.625 1.766,0.6211 3.391,1.2226 4.867,1.789 z m -40.566,23.5899 c 0.211,2.082 0.687,4.1601 1.437,6.2421 0.727,2.0782 1.766,3.9727 3.141,5.7188 1.352,1.7266 3.059,3.1016 5.137,4.1601 2.062,1.043 4.515,1.5821 7.386,1.6016 2.536,-0.0195 4.786,-0.4766 6.739,-1.3945 1.976,-0.9141 3.621,-2.1797 4.972,-3.8047 1.352,-1.6211 2.391,-3.5156 3.078,-5.6367 0.707,-2.1446 1.063,-4.4297 1.063,-6.8867 h -32.953" /><path
         id="path50"
         style="fill:#000000;fill-opacity:1;fill-rule:nonzero;stroke:none"
         d="m 563.055,34.0273 h 11.734 v 28.9571 c 0.02,5.3476 0.746,9.9648 2.16,13.832 1.438,3.8711 3.434,6.8633 6.031,8.9453 2.583,2.0977 5.641,3.1602 9.157,3.1836 1.019,0.0195 2.078,-0.0625 3.203,-0.2305 1.121,-0.1679 2.203,-0.457 3.285,-0.8945 v 10.4844 c -0.812,0.168 -1.602,0.3125 -2.328,0.457 -0.75,0.125 -1.563,0.2266 -2.414,0.2891 -0.852,0.0859 -1.852,0.125 -2.996,0.125 -2.266,-0.0195 -4.473,-0.4961 -6.614,-1.4766 -2.121,-0.9531 -4.058,-2.2851 -5.785,-3.9922 -1.746,-1.707 -3.14,-3.6601 -4.199,-5.8867 h -0.25 v 9.8594 H 563.055 V 34.0273" /><path
         id="path52"
         style="fill:#000000;fill-opacity:1;fill-rule:nonzero;stroke:none"
         d="m 646.691,34.0273 h 12.4766 v 87.1172 H 646.691 Z" /><path
         id="path54"
         style="fill:#000000;fill-opacity:1;fill-rule:nonzero;stroke:none"
         d="m 679.527,34.0273 h 11.735 v 29.4571 c 0,3.8867 0.371,7.4258 1.144,10.6289 0.766,3.2031 1.934,5.9453 3.516,8.2773 1.578,2.3282 3.594,4.1172 6.031,5.3867 2.43,1.2696 5.324,1.8946 8.652,1.9141 3.391,-0.207 6.075,-1.1445 8.047,-2.8711 1.981,-1.7031 3.371,-4.1992 4.207,-7.4844 0.852,-3.289 1.246,-7.4062 1.227,-12.3593 V 34.0273 h 11.73 v 37.8165 c 0.02,5.7226 -0.832,10.6093 -2.519,14.6875 -1.684,4.0781 -4.305,7.1992 -7.82,9.3593 -3.516,2.1641 -8.008,3.2657 -13.5,3.2852 -2.973,0 -5.844,-0.4766 -8.567,-1.3945 -2.726,-0.9336 -5.16,-2.2422 -7.281,-3.9883 -2.145,-1.7305 -3.809,-3.7891 -4.992,-6.2227 h -0.25 v 10.1094 h -11.36 V 34.0273" /><path
         id="path56"
         style="fill:#000000;fill-opacity:1;fill-rule:nonzero;stroke:none"
         d="m 749.684,36.0234 c 2.707,-1.3906 5.535,-2.3476 8.507,-2.8281 2.954,-0.4765 5.95,-0.707 8.965,-0.664 2.871,0 5.617,0.3945 8.258,1.1835 2.645,0.793 5.016,2.0196 7.117,3.6407 2.078,1.6211 3.742,3.6836 4.973,6.1797 1.226,2.4961 1.848,5.4492 1.867,8.8398 -0.019,2.8906 -0.535,5.3438 -1.516,7.3633 -1,2.0195 -2.308,3.7265 -3.953,5.1406 -1.621,1.3906 -3.429,2.5742 -5.386,3.5977 -1.957,0.9961 -3.911,1.9336 -5.868,2.7851 -1.953,0.875 -3.765,1.7696 -5.386,2.7031 -1.645,0.961 -2.953,2.0625 -3.949,3.3282 -0.981,1.2695 -1.5,2.8281 -1.52,4.6601 0.02,1.75 0.559,3.2032 1.582,4.3477 1.016,1.1445 2.387,1.9961 4.074,2.5586 1.684,0.5625 3.559,0.832 5.574,0.832 0.707,0 1.625,-0.1055 2.727,-0.2695 1.102,-0.1875 2.266,-0.4375 3.496,-0.75 1.246,-0.2891 2.387,-0.6446 3.492,-1.0391 1.082,-0.375 1.953,-0.7695 2.641,-1.1875 l 1,10.2383 c -2.289,0.7031 -4.617,1.2891 -6.969,1.7656 -2.371,0.4571 -4.906,0.7071 -7.633,0.7266 -3.164,0 -6.117,-0.3906 -8.82,-1.2031 -2.723,-0.7891 -5.098,-2.0196 -7.137,-3.6211 -2.035,-1.6211 -3.636,-3.6602 -4.761,-6.1172 -1.145,-2.4531 -1.727,-5.3438 -1.746,-8.6485 0.019,-2.5429 0.539,-4.7226 1.539,-6.5976 0.976,-1.8516 2.285,-3.4531 3.929,-4.8242 1.645,-1.3516 3.434,-2.5586 5.391,-3.6211 1.953,-1.0391 3.906,-2.0391 5.863,-2.9532 1.957,-0.9335 3.766,-1.8945 5.387,-2.871 1.644,-0.9766 2.953,-2.0782 3.953,-3.3047 0.977,-1.2071 1.496,-2.6446 1.516,-4.2852 -0.02,-1.707 -0.395,-3.1406 -1.121,-4.3281 -0.707,-1.1641 -1.665,-2.1016 -2.848,-2.8086 -1.188,-0.707 -2.477,-1.207 -3.871,-1.5195 -1.395,-0.3125 -2.785,-0.4571 -4.137,-0.4571 -1.168,0 -2.582,0.168 -4.266,0.5 -1.687,0.3321 -3.433,0.8321 -5.242,1.4961 -1.832,0.668 -3.515,1.5 -5.097,2.4961 l -0.625,-10.4844" /><path
         id="path58"
         style="fill:#000000;fill-opacity:1;fill-rule:nonzero;stroke:none"
         d="M 836.688,97.6797 H 819.84 v 18.4723 l -11.731,-3.746 V 97.6797 h -14.355 v -9.4844 h 14.355 V 51.0039 c 0.02,-4.2461 0.813,-7.7187 2.391,-10.4453 1.582,-2.7227 3.828,-4.7617 6.742,-6.0742 2.934,-1.3086 6.406,-1.9531 10.461,-1.9531 1.895,0.0195 3.703,0.2265 5.41,0.6015 1.727,0.3555 3.242,0.75 4.575,1.1445 v 9.9844 c -0.875,-0.582 -1.977,-1.1015 -3.286,-1.539 -1.332,-0.4571 -2.89,-0.6875 -4.699,-0.7071 -1.812,0 -3.457,0.4375 -4.953,1.3125 -1.477,0.8711 -2.664,2.1407 -3.535,3.8242 -0.895,1.6875 -1.352,3.7696 -1.375,6.2188 v 34.8242 h 16.848 v 9.4844" /><path
         id="path60"
         style="fill:#000000;fill-opacity:1;fill-rule:nonzero;stroke:none"
         d="m 852.18,34.0273 h 11.73 v 63.6524 h -11.73 z m 12.48,91.1097 h -13.23 v -13.231 h 13.23 v 13.231" /><path
         id="path62"
         style="fill:#000000;fill-opacity:1;fill-rule:nonzero;stroke:none"
         d="m 918.465,97.6797 h -16.848 v 18.4723 l -11.73,-3.746 V 97.6797 h -14.356 v -9.4844 h 14.356 V 51.0039 c 0.019,-4.2461 0.812,-7.7187 2.39,-10.4453 1.582,-2.7227 3.828,-4.7617 6.739,-6.0742 2.933,-1.3086 6.406,-1.9531 10.464,-1.9531 1.895,0.0195 3.704,0.2265 5.407,0.6015 1.726,0.3555 3.246,0.75 4.578,1.1445 v 9.9844 c -0.875,-0.582 -1.977,-1.1015 -3.285,-1.539 -1.336,-0.4571 -2.895,-0.6875 -4.703,-0.7071 -1.809,0 -3.454,0.4375 -4.95,1.3125 -1.476,0.8711 -2.664,2.1407 -3.535,3.8242 -0.898,1.6875 -1.351,3.7696 -1.375,6.2188 v 34.8242 h 16.848 v 9.4844" /><path
         id="path64"
         style="fill:#000000;fill-opacity:1;fill-rule:nonzero;stroke:none"
         d="m 988.746,97.6797 h -11.73 V 68.2266 c 0,-3.8907 -0.375,-7.4258 -1.145,-10.6289 -0.769,-3.2032 -1.933,-5.9532 -3.516,-8.2774 -1.582,-2.332 -3.601,-4.1211 -6.031,-5.3906 -2.437,-1.2695 -5.328,-1.8945 -8.656,-1.9141 -3.391,0.2071 -6.074,1.168 -8.051,2.8711 -1.976,1.7031 -3.367,4.2031 -4.199,7.4883 -0.855,3.2891 -1.246,7.4063 -1.227,12.3555 V 97.6797 H 932.457 V 59.8633 c 0,-5.7188 0.832,-10.6055 2.516,-14.6875 1.687,-4.0742 4.308,-7.1953 7.824,-9.3594 3.516,-2.1601 8.027,-3.2656 13.5,-3.2851 2.973,0.0195 5.844,0.4765 8.57,1.3945 2.723,0.9375 5.156,2.2656 7.281,3.9922 2.141,1.7265 3.805,3.8086 4.993,6.2187 h 0.25 V 34.0273 h 11.355 v 63.6524" /><path
         id="path66"
         style="fill:#000000;fill-opacity:1;fill-rule:nonzero;stroke:none"
         d="m 1041.8,97.6797 h -16.85 v 18.4723 l -11.72,-3.746 V 97.6797 h -14.359 v -9.4844 h 14.359 V 51.0039 c 0.02,-4.2461 0.81,-7.7187 2.38,-10.4453 1.59,-2.7227 3.84,-4.7617 6.75,-6.0742 2.93,-1.3086 6.4,-1.9531 10.46,-1.9531 1.89,0.0195 3.7,0.2265 5.41,0.6015 1.72,0.3555 3.24,0.75 4.57,1.1445 v 9.9844 c -0.87,-0.582 -1.98,-1.1015 -3.28,-1.539 -1.34,-0.4571 -2.89,-0.6875 -4.7,-0.7071 -1.82,0 -3.46,0.4375 -4.96,1.3125 -1.47,0.8711 -2.66,2.1407 -3.53,3.8242 -0.9,1.6875 -1.35,3.7696 -1.38,6.2188 v 34.8242 h 16.85 v 9.4844" /><path
         id="path68"
         style="fill:#000000;fill-opacity:1;fill-rule:nonzero;stroke:none"
         d="m 1098.11,34.0273 h 11.73 v 54.168 h 16.85 v 9.4844 h -16.85 v 6.8633 c -0.02,2.164 0.1,4.16 0.35,5.992 0.25,1.832 0.77,3.434 1.54,4.785 0.77,1.371 1.91,2.434 3.43,3.18 1.52,0.75 3.52,1.145 6.04,1.145 1.01,0 2.03,-0.059 3.03,-0.184 1.02,-0.125 1.87,-0.313 2.58,-0.563 l 0.5,9.485 c -1.18,0.187 -2.41,0.375 -3.7,0.519 -1.29,0.145 -2.66,0.227 -4.16,0.227 -4.31,-0.02 -7.86,-0.621 -10.65,-1.805 -2.79,-1.211 -4.98,-2.933 -6.53,-5.183 -1.57,-2.246 -2.64,-4.93 -3.27,-8.071 -0.62,-3.14 -0.91,-6.636 -0.89,-10.523 v -5.8673 h -14.98 v -9.4844 h 14.98 v -54.168" /><path
         id="path70"
         style="fill:#000000;fill-opacity:1;fill-rule:nonzero;stroke:none"
         d="m 1150.41,107.414 h 11.73 v 12.481 h -11.73 z m 20.47,0 h 11.73 v 12.481 h -11.73 z m 23.71,-9.7343 h -11.73 V 68.2266 c 0,-3.8907 -0.37,-7.4258 -1.14,-10.6289 -0.77,-3.2032 -1.93,-5.9532 -3.52,-8.2774 -1.58,-2.332 -3.59,-4.1211 -6.03,-5.3906 -2.43,-1.2695 -5.33,-1.8945 -8.65,-1.9141 -3.39,0.2071 -6.08,1.168 -8.05,2.8711 -1.98,1.7031 -3.37,4.2031 -4.2,7.4883 -0.86,3.2891 -1.25,7.4063 -1.23,12.3555 V 97.6797 H 1138.3 V 59.8633 c 0,-5.7188 0.84,-10.6055 2.52,-14.6875 1.69,-4.0742 4.31,-7.1953 7.82,-9.3594 3.52,-2.1601 8.04,-3.2656 13.5,-3.2851 2.98,0.0195 5.85,0.4765 8.57,1.3945 2.73,0.9375 5.17,2.2656 7.29,3.9922 2.14,1.7265 3.8,3.8086 4.99,6.2187 h 0.25 V 34.0273 h 11.35 v 63.6524" /><path
         id="path72"
         style="fill:#000000;fill-opacity:1;fill-rule:nonzero;stroke:none"
         d="m 1213.83,34.0273 h 11.73 v 28.9571 c 0.02,5.3476 0.75,9.9648 2.17,13.832 1.43,3.8711 3.43,6.8633 6.03,8.9453 2.58,2.0977 5.63,3.1602 9.15,3.1836 1.02,0.0195 2.08,-0.0625 3.2,-0.2305 1.12,-0.1679 2.21,-0.457 3.29,-0.8945 v 10.4844 c -0.81,0.168 -1.6,0.3125 -2.33,0.457 -0.75,0.125 -1.56,0.2266 -2.41,0.2891 -0.86,0.0859 -1.86,0.125 -3,0.125 -2.27,-0.0195 -4.47,-0.4961 -6.61,-1.4766 -2.12,-0.9531 -4.06,-2.2851 -5.78,-3.9922 -1.75,-1.707 -3.14,-3.6601 -4.21,-5.8867 h -0.25 v 9.8594 h -10.98 V 34.0273" /><path
         id="path74"
         style="fill:#000000;fill-opacity:1;fill-rule:nonzero;stroke:none"
         d="m 1314.81,34.0273 h 12.49 V 110.16 h 27.08 v 10.985 h -66.65 V 110.16 h 27.08 V 34.0273" /><path
         id="path76"
         style="fill:#000000;fill-opacity:1;fill-rule:nonzero;stroke:none"
         d="m 1404.57,48.3789 c -0.73,-0.5976 -1.79,-1.2656 -3.19,-1.9922 -1.39,-0.7304 -2.97,-1.4179 -4.78,-2.082 -1.81,-0.668 -3.71,-1.207 -5.71,-1.6211 -1.99,-0.4375 -3.96,-0.6484 -5.92,-0.668 -2.81,0.0196 -5.45,0.5196 -7.97,1.5391 -2.49,1.0195 -4.74,2.4766 -6.68,4.3476 -1.95,1.8711 -3.49,4.0977 -4.61,6.6954 -1.1,2.6054 -1.69,5.4726 -1.71,8.6367 h 45.43 c 0.02,5.1367 -0.46,9.9023 -1.39,14.2461 -0.96,4.3672 -2.52,8.1562 -4.68,11.4023 -2.18,3.2422 -5.06,5.7578 -8.68,7.5508 -3.59,1.8086 -8.05,2.7227 -13.33,2.7422 -4.51,-0.0195 -8.59,-0.8086 -12.25,-2.3672 -3.64,-1.582 -6.78,-3.7891 -9.4,-6.6602 -2.63,-2.8671 -4.64,-6.2578 -6.04,-10.1914 -1.41,-3.9101 -2.12,-8.2343 -2.14,-12.9804 0,-5.1993 0.65,-9.8985 1.98,-14.125 1.31,-4.2227 3.33,-7.8399 6.03,-10.8555 2.7,-3.0391 6.11,-5.3672 10.26,-6.9883 4.16,-1.6445 9.04,-2.457 14.68,-2.4765 3.47,0.0195 6.42,0.25 8.88,0.707 2.44,0.457 4.56,0.9961 6.35,1.625 1.76,0.6211 3.39,1.2226 4.87,1.789 z M 1364,71.9688 c 0.21,2.082 0.69,4.1601 1.44,6.2421 0.72,2.0782 1.76,3.9727 3.14,5.7188 1.35,1.7266 3.05,3.1016 5.13,4.1601 2.07,1.043 4.52,1.5821 7.39,1.6016 2.54,-0.0195 4.78,-0.4766 6.74,-1.3945 1.98,-0.9141 3.62,-2.1797 4.97,-3.8047 1.35,-1.6211 2.39,-3.5156 3.08,-5.6367 0.71,-2.1446 1.06,-4.4297 1.06,-6.8867 H 1364" /><path
         id="path78"
         style="fill:#000000;fill-opacity:1;fill-rule:nonzero;stroke:none"
         d="m 1465.86,96.6836 c -1.15,0.457 -2.52,0.8711 -4.14,1.2656 -1.6,0.375 -3.29,0.668 -5.04,0.8985 -1.76,0.2031 -3.45,0.3281 -5.05,0.3281 -4.89,-0.0195 -9.32,-0.8516 -13.29,-2.4727 -3.98,-1.6445 -7.38,-3.9531 -10.23,-6.9297 -2.86,-2.9726 -5.06,-6.4882 -6.6,-10.5429 -1.54,-4.0586 -2.31,-8.5078 -2.33,-13.3789 0.02,-4.5743 0.81,-8.8789 2.37,-12.8946 1.56,-4.0156 3.77,-7.5312 6.66,-10.5859 2.87,-3.0586 6.28,-5.4727 10.23,-7.1953 3.97,-1.7266 8.36,-2.6055 13.19,-2.6445 1.44,0 2.98,0.0625 4.62,0.1875 1.66,0.125 3.35,0.375 5.07,0.75 1.73,0.3945 3.39,0.9335 5.04,1.6835 l -0.88,10.4844 c -1.22,-0.7929 -2.55,-1.457 -3.99,-2 -1.44,-0.539 -2.89,-0.9336 -4.37,-1.2031 -1.48,-0.2734 -2.89,-0.418 -4.24,-0.418 -3.02,0.0196 -5.68,0.4805 -8.01,1.3946 -2.31,0.8945 -4.3,2.1406 -5.99,3.7226 -1.67,1.582 -3.04,3.3906 -4.1,5.4297 -1.06,2.0352 -1.85,4.1797 -2.37,6.4492 -0.5,2.2656 -0.75,4.5547 -0.75,6.8399 0,3.0586 0.46,6.0156 1.35,8.8437 0.9,2.8281 2.23,5.3633 3.98,7.6133 1.74,2.2656 3.87,4.0547 6.4,5.3672 2.54,1.3086 5.45,1.9961 8.74,2.0156 1.89,0 3.91,-0.207 6.07,-0.6641 2.19,-0.457 4.39,-1.1445 6.66,-2.082 l 1,9.7383" /><path
         id="path80"
         style="fill:#000000;fill-opacity:1;fill-rule:nonzero;stroke:none"
         d="m 1479.1,34.0273 h 11.74 v 29.4571 c 0,3.8867 0.37,7.4258 1.14,10.6289 0.77,3.2031 1.93,5.9453 3.52,8.2773 1.57,2.3282 3.59,4.1172 6.03,5.3867 2.43,1.2696 5.32,1.8946 8.65,1.9141 3.39,-0.207 6.07,-1.1445 8.05,-2.8711 1.98,-1.7031 3.37,-4.1992 4.2,-7.4844 0.86,-3.289 1.25,-7.4062 1.23,-12.3593 V 34.0273 h 11.73 v 37.8165 c 0.02,5.7226 -0.83,10.6093 -2.52,14.6875 -1.68,4.0781 -4.3,7.1992 -7.82,9.3593 -3.51,2.1641 -8.01,3.2657 -13.5,3.2852 -4.47,-0.0195 -8.44,-0.9336 -11.96,-2.7656 -3.52,-1.8321 -6.34,-4.4493 -8.51,-7.8399 h -0.24 V 127.633 H 1479.1 V 34.0273" /><path
         id="path82"
         style="fill:#000000;fill-opacity:1;fill-rule:nonzero;stroke:none"
         d="m 1554.63,34.0273 h 11.73 v 29.4571 c 0,3.8867 0.37,7.4258 1.14,10.6289 0.77,3.2031 1.94,5.9453 3.52,8.2773 1.58,2.3282 3.59,4.1172 6.03,5.3867 2.43,1.2696 5.33,1.8946 8.65,1.9141 3.39,-0.207 6.08,-1.1445 8.05,-2.8711 1.98,-1.7031 3.37,-4.1992 4.21,-7.4844 0.85,-3.289 1.24,-7.4062 1.22,-12.3593 V 34.0273 h 11.73 v 37.8165 c 0.02,5.7226 -0.83,10.6093 -2.52,14.6875 -1.68,4.0781 -4.3,7.1992 -7.82,9.3593 -3.51,2.1641 -8,3.2657 -13.5,3.2852 -2.97,0 -5.84,-0.4766 -8.56,-1.3945 -2.73,-0.9336 -5.16,-2.2422 -7.28,-3.9883 -2.15,-1.7305 -3.81,-3.7891 -5,-6.2227 h -0.25 v 10.1094 h -11.35 V 34.0273" /><path
         id="path84"
         style="fill:#000000;fill-opacity:1;fill-rule:nonzero;stroke:none"
         d="m 1625.91,65.8516 c 0.02,-4.5743 0.81,-8.8789 2.37,-12.8946 1.56,-4.0156 3.76,-7.5312 6.65,-10.5859 2.87,-3.0586 6.28,-5.4727 10.24,-7.1953 3.97,-1.7266 8.36,-2.6055 13.19,-2.6445 4.78,0.039 9.17,0.9179 13.1,2.6445 3.95,1.7226 7.36,4.1367 10.22,7.1953 2.87,3.0547 5.07,6.5703 6.63,10.5859 1.56,4.0157 2.35,8.3203 2.37,12.8946 -0.02,4.8711 -0.79,9.3203 -2.33,13.3789 -1.54,4.0547 -3.72,7.5703 -6.57,10.5429 -2.85,2.9766 -6.26,5.2852 -10.21,6.9297 -3.96,1.6211 -8.37,2.4532 -13.21,2.4727 -4.9,-0.0195 -9.32,-0.8516 -13.3,-2.4727 -3.97,-1.6445 -7.38,-3.9531 -10.23,-6.9297 -2.85,-2.9726 -5.06,-6.4882 -6.6,-10.5429 -1.53,-4.0586 -2.3,-8.5078 -2.32,-13.3789 z m 12.48,0 c 0,3.0586 0.45,6.0156 1.35,8.8437 0.89,2.8281 2.18,5.3633 3.91,7.6133 1.71,2.2656 3.81,4.0547 6.26,5.3672 2.48,1.3086 5.28,1.9961 8.45,2.0156 3.12,-0.0195 5.9,-0.707 8.36,-2.0156 2.45,-1.3125 4.53,-3.1016 6.24,-5.3672 1.7,-2.25 3.01,-4.7852 3.89,-7.6133 0.89,-2.8281 1.35,-5.7851 1.35,-8.8437 0,-2.2852 -0.25,-4.5743 -0.75,-6.8399 -0.5,-2.2695 -1.25,-4.414 -2.29,-6.4492 -1.02,-2.0391 -2.3,-3.8477 -3.89,-5.4297 -1.58,-1.582 -3.43,-2.8281 -5.57,-3.7226 -2.15,-0.9141 -4.6,-1.375 -7.34,-1.3946 -2.77,0.0196 -5.25,0.4805 -7.41,1.3946 -2.16,0.8945 -4.04,2.1406 -5.62,3.7226 -1.58,1.582 -2.87,3.3906 -3.9,5.4297 -1.02,2.0352 -1.79,4.1797 -2.3,6.4492 -0.49,2.2656 -0.74,4.5547 -0.74,6.8399" /><path
         id="path86"
         style="fill:#000000;fill-opacity:1;fill-rule:nonzero;stroke:none"
         d="m 1707.17,34.0273 h 11.7305 v 93.6055 H 1707.17 Z" /><path
         id="path88"
         style="fill:#000000;fill-opacity:1;fill-rule:nonzero;stroke:none"
         d="m 1735.39,65.8516 c 0.02,-4.5743 0.81,-8.8789 2.37,-12.8946 1.56,-4.0156 3.77,-7.5312 6.66,-10.5859 2.87,-3.0586 6.28,-5.4727 10.23,-7.1953 3.98,-1.7266 8.37,-2.6055 13.19,-2.6445 4.79,0.039 9.18,0.9179 13.11,2.6445 3.95,1.7226 7.36,4.1367 10.21,7.1953 2.87,3.0547 5.07,6.5703 6.64,10.5859 1.56,4.0157 2.34,8.3203 2.36,12.8946 -0.02,4.8711 -0.78,9.3203 -2.32,13.3789 -1.54,4.0547 -3.73,7.5703 -6.57,10.5429 -2.86,2.9766 -6.27,5.2852 -10.22,6.9297 -3.95,1.6211 -8.36,2.4532 -13.21,2.4727 -4.89,-0.0195 -9.32,-0.8516 -13.29,-2.4727 -3.98,-1.6445 -7.39,-3.9531 -10.24,-6.9297 -2.85,-2.9726 -5.05,-6.4882 -6.59,-10.5429 -1.54,-4.0586 -2.31,-8.5078 -2.33,-13.3789 z m 12.48,0 c 0,3.0586 0.46,6.0156 1.35,8.8437 0.9,2.8281 2.19,5.3633 3.92,7.6133 1.7,2.2656 3.8,4.0547 6.26,5.3672 2.47,1.3086 5.28,1.9961 8.44,2.0156 3.12,-0.0195 5.91,-0.707 8.36,-2.0156 2.46,-1.3125 4.54,-3.1016 6.24,-5.3672 1.71,-2.25 3.02,-4.7852 3.9,-7.6133 0.89,-2.8281 1.34,-5.7851 1.34,-8.8437 0,-2.2852 -0.25,-4.5743 -0.74,-6.8399 -0.5,-2.2695 -1.25,-4.414 -2.29,-6.4492 -1.02,-2.0391 -2.31,-3.8477 -3.89,-5.4297 -1.58,-1.582 -3.43,-2.8281 -5.58,-3.7226 -2.14,-0.9141 -4.59,-1.375 -7.34,-1.3946 -2.77,0.0196 -5.24,0.4805 -7.41,1.3946 -2.16,0.8945 -4.03,2.1406 -5.61,3.7226 -1.58,1.582 -2.87,3.3906 -3.91,5.4297 -1.02,2.0352 -1.79,4.1797 -2.29,6.4492 -0.5,2.2656 -0.75,4.5547 -0.75,6.8399" /><path
         id="path90"
         style="fill:#000000;fill-opacity:1;fill-rule:nonzero;stroke:none"
         d="m 1871.45,97.6797 h -10.86 v -9.4844 h -0.25 c -1.14,2.3086 -2.64,4.2656 -4.49,5.9063 -1.85,1.625 -4.12,2.8945 -6.83,3.7422 -2.7,0.8789 -5.93,1.332 -9.65,1.332 -3.85,-0.0195 -7.28,-0.6641 -10.34,-1.9531 -3.06,-1.2696 -5.72,-3.0157 -7.98,-5.2422 -2.27,-2.2266 -4.14,-4.7852 -5.66,-7.6524 -1.5,-2.875 -2.62,-5.9297 -3.35,-9.1758 -0.75,-3.246 -1.13,-6.5117 -1.13,-9.7968 0,-4.1602 0.57,-8.0899 1.69,-11.836 1.12,-3.7461 2.83,-7.0937 5.1,-10.0078 2.24,-2.9101 5.07,-5.2187 8.48,-6.9023 3.41,-1.6836 7.39,-2.5391 11.95,-2.5821 2.72,0 5.4,0.3555 8.02,1.086 2.62,0.7226 5.08,1.8281 7.37,3.2851 2.28,1.4571 4.26,3.2852 5.94,5.4883 h 0.25 v -6.2383 c -0.02,-4.5156 -0.78,-8.4062 -2.37,-11.6484 -1.55,-3.2695 -3.8,-5.7617 -6.73,-7.5312 -2.94,-1.7461 -6.48,-2.6407 -10.61,-2.6602 -2.15,0 -4.12,0.1016 -5.96,0.3125 -1.84,0.2031 -3.63,0.5586 -5.38,1.0156 -1.77,0.461 -3.58,1.0391 -5.45,1.7696 -1.9,0.7265 -3.95,1.625 -6.18,2.6406 l -1.25,-10.8555 c 3.37,-1.14452 6.37,-2.06249 8.97,-2.68359 2.6,-0.64843 5.01,-1.08593 7.24,-1.33203 2.2,-0.25 4.43,-0.35156 6.63,-0.35156 7.59,0.01953 13.81,1.20312 18.66,3.59375 4.85,2.37503 8.42,5.82813 10.74,10.35933 2.3,4.5352 3.45,10.0274 3.43,16.5 z m -30.33,-54.168 c -2.74,0.0235 -5.23,0.625 -7.41,1.8321 -2.18,1.1875 -4.03,2.8281 -5.57,4.9101 -1.54,2.082 -2.71,4.4688 -3.52,7.1563 -0.81,2.7031 -1.23,5.5507 -1.23,8.5664 0,2.1875 0.24,4.4101 0.72,6.6367 0.45,2.2265 1.16,4.3672 2.11,6.4062 0.94,2.043 2.13,3.8516 3.54,5.4532 1.42,1.6015 3.08,2.8711 4.97,3.8046 1.9,0.918 4.02,1.3946 6.39,1.4141 3.12,-0.0195 5.84,-0.6836 8.17,-1.9766 2.33,-1.289 4.27,-3.0781 5.81,-5.3437 1.54,-2.2891 2.7,-4.8906 3.47,-7.8438 0.77,-2.9531 1.14,-6.0937 1.14,-9.4218 0,-2.9727 -0.45,-5.7852 -1.35,-8.3828 -0.89,-2.5977 -2.18,-4.8907 -3.82,-6.8672 -1.65,-1.9727 -3.6,-3.5117 -5.87,-4.6367 -2.29,-1.1211 -4.79,-1.6836 -7.55,-1.7071" /><path
         id="path92"
         style="fill:#000000;fill-opacity:1;fill-rule:nonzero;stroke:none"
         d="m 1892.18,34.0273 h 11.73 v 63.6524 h -11.73 z m 12.48,91.1097 h -13.23 v -13.231 h 13.23 v 13.231" /><path
         id="path94"
         style="fill:#000000;fill-opacity:1;fill-rule:nonzero;stroke:none"
         d="m 1973.45,48.3789 c -0.74,-0.5976 -1.79,-1.2656 -3.19,-1.9922 -1.39,-0.7304 -2.97,-1.4179 -4.78,-2.082 -1.81,-0.668 -3.71,-1.207 -5.7,-1.6211 -2,-0.4375 -3.98,-0.6484 -5.93,-0.668 -2.81,0.0196 -5.45,0.5196 -7.97,1.5391 -2.49,1.0195 -4.74,2.4766 -6.68,4.3476 -1.95,1.8711 -3.49,4.0977 -4.61,6.6954 -1.11,2.6054 -1.69,5.4726 -1.71,8.6367 h 45.43 c 0.02,5.1367 -0.46,9.9023 -1.39,14.2461 -0.96,4.3672 -2.52,8.1562 -4.68,11.4023 -2.19,3.2422 -5.06,5.7578 -8.68,7.5508 -3.6,1.8086 -8.05,2.7227 -13.33,2.7422 -4.52,-0.0195 -8.59,-0.8086 -12.25,-2.3672 -3.64,-1.582 -6.78,-3.7891 -9.41,-6.6602 -2.61,-2.8671 -4.63,-6.2578 -6.03,-10.1914 -1.41,-3.9101 -2.12,-8.2343 -2.14,-12.9804 0,-5.1993 0.65,-9.8985 1.98,-14.125 1.31,-4.2227 3.33,-7.8399 6.03,-10.8555 2.7,-3.0391 6.11,-5.3672 10.25,-6.9883 4.16,-1.6445 9.05,-2.457 14.69,-2.4765 3.47,0.0195 6.43,0.25 8.88,0.707 2.43,0.457 4.56,0.9961 6.35,1.625 1.76,0.6211 3.39,1.2226 4.87,1.789 z m -40.57,23.5899 c 0.21,2.082 0.69,4.1601 1.44,6.2421 0.72,2.0782 1.76,3.9727 3.14,5.7188 1.35,1.7266 3.06,3.1016 5.13,4.1601 2.07,1.043 4.52,1.5821 7.39,1.6016 2.54,-0.0195 4.79,-0.4766 6.74,-1.3945 1.98,-0.9141 3.62,-2.1797 4.97,-3.8047 1.35,-1.6211 2.39,-3.5156 3.08,-5.6367 0.71,-2.1446 1.06,-4.4297 1.06,-6.8867 h -32.95" /></g></g></svg>