<?xml version="1.0" encoding="UTF-8" standalone="no"?>
<svg
   version="1.0"
   width="1200px"
   height="1070px"
   viewBox="0 0 12000 10700"
   preserveAspectRatio="xMidYMid meet"
   id="svg13"
   sodipodi:docname="logo.svg"
   inkscape:version="1.2.1 (9c6d41e410, 2022-07-14)"
   xmlns:inkscape="http://www.inkscape.org/namespaces/inkscape"
   xmlns:sodipodi="http://sodipodi.sourceforge.net/DTD/sodipodi-0.dtd"
   xmlns="http://www.w3.org/2000/svg"
   xmlns:svg="http://www.w3.org/2000/svg">
  <defs
     id="defs17" />
  <sodipodi:namedview
     id="namedview15"
     pagecolor="#ffffff"
     bordercolor="#666666"
     borderopacity="1.0"
     inkscape:showpageshadow="2"
     inkscape:pageopacity="0.0"
     inkscape:pagecheckerboard="0"
     inkscape:deskcolor="#d1d1d1"
     showgrid="false"
     inkscape:zoom="0.35420561"
     inkscape:cx="574.52506"
     inkscape:cy="1165.9894"
     inkscape:window-width="1280"
     inkscape:window-height="1355"
     inkscape:window-x="2560"
     inkscape:window-y="0"
     inkscape:window-maximized="0"
     inkscape:current-layer="svg13" />
  <g
     id="layer101"
     fill="#000000"
     stroke="none"
     style="fill:#0077c0;fill-opacity:1">
    <path
       d="M4935 10689 c-1117 -74 -2139 -481 -2999 -1193 -138 -114 -354 -316 -462 -433 -60 -65 -111 -120 -115 -123 -17 -16 -215 -258 -265 -324 -501 -668 -846 -1443 -992 -2231 -59 -316 -76 -460 -94 -798 -9 -187 -9 -287 0 -475 18 -337 35 -481 94 -797 22 -121 68 -317 102 -437 316 -1112 963 -2077 1867 -2783 755 -589 1678 -962 2634 -1064 677 -73 1375 -8 2025 189 58 18 120 36 138 41 66 20 370 138 472 184 331 149 613 311 930 533 160 113 550 440 550 462 0 5 -50 91 -111 192 -62 100 -289 479 -506 841 l-394 657 -535 0 -535 0 28 -47 c24 -42 240 -405 705 -1182 116 -193 138 -235 126 -246 -25 -24 -203 -132 -333 -203 -811 -440 -1742 -602 -2662 -462 -209 31 -533 108 -645 152 l-28 10 0 1992 0 1992 23 19 c12 10 101 91 197 180 96 89 209 192 250 230 41 37 104 95 140 129 36 34 117 108 180 166 63 58 122 112 130 120 8 8 67 62 130 120 63 58 122 112 130 120 8 8 67 62 130 120 63 58 144 132 180 166 64 60 184 170 206 189 6 6 61 57 123 114 61 57 122 113 134 123 12 11 45 41 72 67 28 26 104 96 170 156 66 61 127 117 135 125 8 8 67 62 130 120 63 58 122 112 130 120 8 8 67 62 130 120 63 58 144 132 180 166 36 33 92 85 125 115 57 53 198 182 460 424 66 60 144 133 175 160 80 73 155 142 244 225 43 40 81 69 85 64 3 -5 35 -34 71 -64 232 -195 477 -453 658 -694 95 -124 235 -336 310 -467 63 -110 207 -395 232 -462 l15 -37 95 73 c52 40 190 144 305 232 339 257 365 277 371 287 14 22 -233 465 -389 698 -65 97 -282 389 -324 435 -10 11 -45 52 -77 90 -99 118 -474 485 -605 594 -576 478 -1187 806 -1896 1015 -549 162 -1186 233 -1750 195z m800 -953 c293 -39 544 -93 810 -176 175 -54 575 -221 575 -240 0 -6 -65 -68 -285 -270 -32 -30 -64 -59 -71 -65 -6 -5 -61 -57 -123 -114 -61 -57 -122 -113 -134 -123 -12 -11 -44 -41 -72 -67 -27 -26 -104 -96 -170 -156 -66 -61 -127 -117 -135 -125 -8 -8 -67 -62 -130 -120 -63 -58 -144 -132 -180 -166 -36 -33 -94 -87 -130 -120 -36 -32 -94 -86 -130 -120 -36 -33 -94 -87 -130 -120 -36 -32 -94 -86 -130 -120 -36 -33 -92 -85 -125 -115 -269 -247 -611 -562 -660 -608 -33 -31 -116 -108 -185 -171 -69 -63 -152 -140 -185 -171 -33 -30 -94 -87 -135 -125 l-75 -69 -3 1584 c-1 872 1 1588 5 1592 24 22 367 110 558 143 316 55 450 65 815 61 203 -2 345 -9 425 -19z m-2710 -4384 l0 -3779 -61 37 c-62 39 -219 148 -265 184 -14 12 -41 32 -59 46 -107 80 -207 168 -368 325 -849 825 -1332 1980 -1332 3185 0 806 215 1592 624 2285 269 456 656 898 1066 1218 89 69 384 277 394 277 1 0 1 -1700 1 -3778z"
       id="path2"
       style="fill:#0077c0;fill-opacity:1" />
    <path
       d="M8904 6385 c-293 -64 -523 -301 -604 -622 -24 -96 -27 -298 -6 -400 66 -313 294 -564 581 -639 93 -25 274 -25 365 0 83 22 190 75 258 126 29 22 55 40 57 40 3 0 5 -24 5 -54 0 -33 5 -58 14 -65 9 -8 91 -11 277 -9 l264 3 3 783 2 782 -277 -2 -278 -3 -3 -57 c-2 -32 -5 -58 -8 -58 -3 0 -24 15 -46 34 -58 50 -191 114 -283 136 -93 23 -229 25 -321 5z m441 -472 c87 -30 168 -101 210 -184 98 -192 20 -427 -173 -521 -61 -29 -75 -32 -157 -32 -114 0 -184 26 -253 92 -65 62 -99 124 -118 212 -59 283 219 529 491 433z"
       id="path4"
       style="fill:#0077c0;fill-opacity:1" />
    <path
       d="M6890 6155 l0 -195 -540 0 -540 0 0 -241 0 -240 47 -77 c93 -153 357 -590 428 -707 40 -66 137 -226 215 -355 79 -129 186 -307 240 -395 53 -88 103 -170 111 -182 14 -23 14 -23 306 -23 l293 0 0 865 0 865 150 0 c83 0 150 1 150 3 0 5 -93 243 -144 370 l-48 117 -43 0 c-23 0 -47 6 -54 13 -6 8 -12 81 -13 193 l-3 179 -277 3 -278 2 0 -195z m-2 -1072 c-2 -298 -6 -388 -15 -388 -7 0 -109 153 -227 340 -118 187 -221 349 -229 360 -7 11 -22 32 -31 48 l-18 27 261 0 261 0 -2 -387z"
       id="path6"
       style="fill:#0077c0;fill-opacity:1" />
    <path
       d="M10495 6318 c-3 -7 -4 -573 -3 -1258 l3 -1245 280 0 280 0 3 1258 2 1257 -280 0 c-215 0 -282 -3 -285 -12z"
       id="path8"
       style="fill:#0077c0;fill-opacity:1" />
    <path
       d="M11430 5070 l0 -1260 283 2 282 3 3 1258 2 1257 -285 0 -285 0 0 -1260z"
       id="path10"
       style="fill:#0077c0;fill-opacity:1" />
  </g>
</svg>
