<?xml version="1.0" encoding="UTF-8" standalone="no"?>
<!-- Created with Inkscape (http://www.inkscape.org/) -->

<svg
   xmlns:dc="http://purl.org/dc/elements/1.1/"
   xmlns:cc="http://creativecommons.org/ns#"
   xmlns:rdf="http://www.w3.org/1999/02/22-rdf-syntax-ns#"
   xmlns:svg="http://www.w3.org/2000/svg"
   xmlns="http://www.w3.org/2000/svg"
   xmlns:sodipodi="http://sodipodi.sourceforge.net/DTD/sodipodi-0.dtd"
   xmlns:inkscape="http://www.inkscape.org/namespaces/inkscape"
   width="724.93359"
   height="124.36164"
   viewBox="0 0 679.62523 116.58904"
   id="svg2"
   version="1.1"
   inkscape:version="0.92.4 (f8dce91, 2019-08-02)"
   sodipodi:docname="Logo-final_Voll.svg"
   inkscape:export-filename="\\FPSERVER\altedrucke\DigBib\ocr-koordinierung\organisatorisches\Kommunikation und ÖA\Logo\logo_full.png"
   inkscape:export-xdpi="96"
   inkscape:export-ydpi="96">
  <defs
     id="defs4" />
  <sodipodi:namedview
     id="base"
     pagecolor="#ffffff"
     bordercolor="#ff0dff"
     borderopacity="0"
     inkscape:pageopacity="0.01176471"
     inkscape:pageshadow="2"
     inkscape:zoom="0.94045202"
     inkscape:cx="207.00077"
     inkscape:cy="81.645652"
     inkscape:document-units="px"
     inkscape:current-layer="g4541"
     showgrid="false"
     inkscape:window-width="1853"
     inkscape:window-height="1025"
     inkscape:window-x="1987"
     inkscape:window-y="27"
     inkscape:window-maximized="1"
     units="px"
     inkscape:pagecheckerboard="false"
     borderlayer="true"
     fit-margin-top="0"
     fit-margin-left="0"
     fit-margin-right="0"
     fit-margin-bottom="0" />
  <metadata
     id="metadata7">
    <rdf:RDF>
      <cc:Work
         rdf:about="">
        <dc:format>image/svg+xml</dc:format>
        <dc:type
           rdf:resource="http://purl.org/dc/dcmitype/StillImage" />
        <dc:title></dc:title>
      </cc:Work>
    </rdf:RDF>
  </metadata>
  <g
     inkscape:label="Ebene 1"
     inkscape:groupmode="layer"
     id="layer1"
     transform="translate(-168.55404,-515.62931)">
    <path
       style="fill:#ff0000;fill-opacity:1;stroke:none;stroke-width:25;stroke-miterlimit:4;stroke-dasharray:none;stroke-opacity:1"
       d=""
       id="path4197"
       inkscape:connector-curvature="0" />
    <path
       style="fill:#ff0000;fill-opacity:1;stroke:none;stroke-width:25;stroke-miterlimit:4;stroke-dasharray:none;stroke-opacity:1"
       d=""
       id="path4199"
       inkscape:connector-curvature="0" />
    <path
       style="fill:#ffffff;fill-opacity:1;stroke:none;stroke-width:25;stroke-miterlimit:4;stroke-dasharray:none;stroke-opacity:1"
       d=""
       id="path4212"
       inkscape:connector-curvature="0" />
    <flowRoot
       xml:space="preserve"
       id="flowRoot4520"
       style="font-style:normal;font-weight:normal;font-size:40px;line-height:1.25;font-family:sans-serif;letter-spacing:0px;word-spacing:0px;fill:#000000;fill-opacity:1;stroke:none"><flowRegion
         id="flowRegion4522"><rect
           id="rect4524"
           width="489"
           height="106"
           x="352"
           y="-656" /></flowRegion><flowPara
         id="flowPara4526" /></flowRoot>    <g
       id="g4541">
      <path
         inkscape:export-ydpi="74.026085"
         inkscape:export-xdpi="74.026085"
         inkscape:connector-curvature="0"
         id="path4219-7"
         d="m 276.91059,584.78864 c 0.88694,-20.35363 0.88694,-20.35363 0.88694,-20.35363 l 0.97461,7.49228 -0.03,4.70839 -0.58903,4.33011 z"
         style="fill:#c8ab37;fill-opacity:1;fill-rule:evenodd;stroke:none;stroke-width:0.30129436px;stroke-linecap:butt;stroke-linejoin:miter;stroke-opacity:1" />
      <text
         xml:space="preserve"
         style="font-style:normal;font-weight:normal;font-size:5.43999004px;line-height:0.01%;font-family:sans-serif;letter-spacing:0px;word-spacing:0px;fill:#000000;fill-opacity:1;stroke:none;stroke-width:0.45333251px;stroke-linecap:butt;stroke-linejoin:miter;stroke-opacity:1"
         x="300.41321"
         y="533.01929"
         id="text152"><tspan
           sodipodi:role="line"
           x="0"
           y="1.4133945"
           id="tspan136"
           style="stroke-width:0.45333251px"><tspan
             x="300.41321"
             y="533.01929"
             style="font-style:normal;font-variant:normal;font-weight:normal;font-stretch:normal;font-size:18.13330078px;line-height:1.25;font-family:Consolas;-inkscape-font-specification:Consolas;stroke-width:0.45333251px"
             id="tspan134" /></tspan><tspan
           sodipodi:role="line"
           x="0"
           y="1.4139384"
           id="tspan140"
           style="stroke-width:0.45333251px"><tspan
             x="300.41321"
             y="533.01984"
             style="font-style:normal;font-variant:normal;font-weight:normal;font-stretch:normal;font-size:18.13330078px;line-height:1.25;font-family:Consolas;-inkscape-font-specification:Consolas;stroke-width:0.45333251px"
             id="tspan138" /></tspan><tspan
           sodipodi:role="line"
           x="0"
           y="1.4144824"
           id="tspan144"
           style="stroke-width:0.45333251px"><tspan
             x="300.41321"
             y="533.02039"
             style="font-style:normal;font-variant:normal;font-weight:normal;font-stretch:normal;font-size:18.13330078px;line-height:1.25;font-family:Consolas;-inkscape-font-specification:Consolas;stroke-width:0.45333251px"
             id="tspan142" /></tspan><tspan
           sodipodi:role="line"
           x="300.41321"
           y="574.99133"
           id="tspan150"
           style="stroke-width:0.45333251px"><tspan
             x="300.41321"
             y="574.99133"
             style="font-style:normal;font-variant:normal;font-weight:normal;font-stretch:normal;font-size:50px;line-height:1.25;font-family:Consolas;-inkscape-font-specification:Consolas;fill:#c8ab37;fill-opacity:1;stroke-width:0.45333251px"
             id="tspan146">OCR-D</tspan><tspan
             dx="0"
             x="438.10855"
             y="574.99133"
             style="font-style:normal;font-variant:normal;font-weight:normal;font-stretch:normal;font-size:50px;line-height:1.25;font-family:Consolas;-inkscape-font-specification:Consolas;fill:#c8ab37;fill-opacity:1;stroke-width:0.45333251px"
             id="tspan148" /></tspan></text>
      <flowRoot
         inkscape:export-ydpi="74.026085"
         inkscape:export-xdpi="74.026085"
         transform="matrix(0.30129437,0,0,0.30129437,111.09814,428.9358)"
         style="font-style:normal;font-weight:normal;line-height:0.01%;font-family:sans-serif;letter-spacing:0px;word-spacing:0px;fill:#c8ab37;fill-opacity:1;stroke:none;stroke-width:1px;stroke-linecap:butt;stroke-linejoin:miter;stroke-opacity:1"
         id="flowRoot4167"
         xml:space="preserve"><flowRegion
           id="flowRegion4169"><rect
             style="fill:#c8ab37;fill-opacity:1"
             y="430.24026"
             x="401.94907"
             height="281.07993"
             width="421.61984"
             id="rect4171" /></flowRegion><flowPara
           style="font-style:normal;font-variant:normal;font-weight:normal;font-stretch:normal;font-size:95.97850037px;line-height:1.25;font-family:'Theuerdank Fraktur';-inkscape-font-specification:'Theuerdank Fraktur';fill:#c8ab37;fill-opacity:1"
           id="flowPara4173">C</flowPara></flowRoot>      <flowRoot
         inkscape:export-ydpi="74.026085"
         inkscape:export-xdpi="74.026085"
         transform="matrix(0.58478537,0,0,0.58478537,187.04859,477.23452)"
         style="font-style:normal;font-weight:normal;line-height:0.01%;font-family:sans-serif;letter-spacing:0px;word-spacing:0px;fill:#c8ab37;fill-opacity:1;stroke:none;stroke-width:1px;stroke-linecap:butt;stroke-linejoin:miter;stroke-opacity:1"
         id="flowRoot4175"
         xml:space="preserve"><flowRegion
           id="flowRegion4177"><rect
             style="fill:#c8ab37;fill-opacity:1"
             y="143.79077"
             x="104.28571"
             height="94.285713"
             width="135.71428"
             id="rect4179" /></flowRegion><flowPara
           style="font-style:normal;font-variant:normal;font-weight:normal;font-stretch:normal;font-size:40px;line-height:1.25;font-family:'Walbaum Fraktur';-inkscape-font-specification:'Walbaum Fraktur';fill:#c8ab37;fill-opacity:1"
           id="flowPara4181">R</flowPara></flowRoot>      <path
         inkscape:export-ydpi="74.026085"
         inkscape:export-xdpi="74.026085"
         inkscape:connector-curvature="0"
         id="path4211"
         d="m 219.46093,632.02541 c -11.16634,-1.7339 -24.58795,-8.09159 -33.8928,-16.05472 -7.8512,-6.71909 -13.59965,-16.71359 -16.14011,-28.06183 -0.75481,-3.37178 -0.87598,-4.93021 -0.87396,-11.2409 0.002,-6.85363 0.0696,-7.56756 1.04389,-11.06323 4.18825,-15.02639 14.72277,-26.99008 31.07729,-35.29339 2.99632,-1.52125 8.23752,-3.99277 11.64713,-5.49227 3.4096,-1.49951 9.1417,-4.1417 12.73801,-5.87155 3.59631,-1.72985 6.59491,-3.14518 6.66357,-3.14518 0.0686,0 0.1695,5.22365 0.22411,11.60812 l 0.0993,11.60812 4.69642,-4.1112 c 5.3403,-4.67483 4.60584,-4.48358 10.32314,-2.68813 12.89739,4.05028 23.89684,13.8654 28.74936,25.65385 2.38126,5.7849 2.80453,8.15723 2.7836,15.6013 -0.017,6.07004 -0.1194,7.13641 -0.99888,10.40945 -1.57792,5.87231 -4.96111,12.33918 -8.60806,16.45408 -1.2675,1.43013 -1.26492,1.41373 0.38427,-2.44214 1.81607,-4.246 2.48579,-8.21776 2.47082,-14.65284 -0.012,-5.15444 -0.10349,-5.90842 -1.07143,-8.82927 -2.68093,-8.09003 -6.19761,-13.19087 -17.08878,-24.78672 -3.59593,-3.8286 -7.71883,-8.48273 -9.162,-10.34251 -1.44316,-1.85979 -2.78014,-3.33581 -2.97105,-3.28005 -0.19091,0.0558 -2.53498,1.98235 -5.20904,4.28132 l -4.86194,4.17994 v 18.38161 18.38161 l -11.17749,11.64909 c -6.14761,6.40701 -11.21915,11.76324 -11.27007,11.90274 -0.15185,0.41594 6.17314,3.88168 9.58204,5.25042 5.14053,2.06403 11.01185,3.37035 17.31528,3.8525 5.41049,0.41385 7.3449,0.33122 14.33592,-0.61238 1.20741,-0.16296 1.16129,-0.11237 -0.56357,0.61834 -3.67797,1.55811 -12.16751,3.352 -15.8739,3.35425 l -1.9725,10e-4 v 7.27945 7.27945 l -1.1741,0.23483 c -1.23396,0.24679 -9.6133,0.23681 -11.22445,-0.0134 v 2e-5 z M 207.6227,600.30205 c 2.03939,-2.77031 3.06859,-5.89776 3.62746,-11.02285 0.4416,-4.04965 0.30746,-58.96259 -0.14514,-59.41518 -0.29604,-0.29605 -5.20843,2.64028 -8.57757,5.12715 -1.35767,1.00215 -3.90201,3.30912 -5.65408,5.12662 -5.23202,5.42739 -8.45477,11.45495 -10.18928,19.05717 -1.06959,4.68792 -1.14083,13.04573 -0.14751,17.30515 1.78271,7.64432 5.39875,13.88495 11.58347,19.99096 2.62372,2.59033 6.93835,6.09002 7.53418,6.11112 0.1554,0.006 1.04122,-1.02055 1.96847,-2.28014 z"
         style="fill:#c8ab37;fill-opacity:1;stroke:none;stroke-width:6.64444447;stroke-miterlimit:4;stroke-dasharray:none;stroke-opacity:1" />
      <path
         inkscape:export-ydpi="74.026085"
         inkscape:export-xdpi="74.026085"
         inkscape:connector-curvature="0"
         id="path4219"
         d="m 229.59756,617.15864 c 22.43667,-4.22967 22.43667,-4.22967 22.43667,-4.22967 l -7.95491,3.14311 -5.14931,1.19197 -4.86686,0.41178 z"
         style="fill:#c8ab37;fill-opacity:1;fill-rule:evenodd;stroke:none;stroke-width:0.30129436px;stroke-linecap:butt;stroke-linejoin:miter;stroke-opacity:1" />
      <path
         inkscape:export-ydpi="74.026085"
         inkscape:export-xdpi="74.026085"
         inkscape:connector-curvature="0"
         id="path4164"
         d="m 234.12587,518.22609 v 4.83605 4.83664 l 3.68144,0.40886 c 10.8062,1.20159 20.65737,5.76163 28.22085,12.54929 -0.36785,-1.24795 -0.78448,-2.63321 -1.11485,-3.49544 -0.21882,-0.5711 -0.54061,-1.09856 -0.76331,-1.66816 -0.41361,-1.05789 -0.59977,-2.18439 -0.79782,-3.29599 -0.0301,-0.14361 -0.0529,-0.28926 -0.0907,-0.43108 -0.0204,-0.0767 -0.23729,-0.7132 -0.24742,-0.87151 -0.006,-0.0868 -0.01,-0.24478 -0.0117,-0.38663 -0.83865,-0.38257 -1.81363,-0.3867 -2.69118,-0.60246 -0.50716,-0.0957 -1.01987,-0.16515 -1.52135,-0.28719 -0.40448,-0.0984 -0.79342,-0.25331 -1.19206,-0.37318 -0.86905,-0.26133 -1.21294,-0.36093 -1.43245,-0.42347 0.0248,-0.003 -0.2127,-0.0965 -1.30786,-0.47027 -0.51719,-0.1765 -1.04985,-0.30796 -1.5623,-0.49777 -0.28502,-0.10556 -0.55009,-0.25766 -0.82531,-0.38662 -0.16211,-0.10311 -0.34545,-0.17913 -0.48665,-0.30942 -0.0441,-0.0407 0.23078,0.0538 0.1784,0.0246 -0.125,-0.0697 -0.27117,-0.0927 -0.40242,-0.14974 -0.15058,-0.0654 -0.44386,-0.32473 -0.5042,-0.37785 -0.0122,-0.0108 0.0308,0.0104 0.0462,0.0158 -0.56739,-0.49741 -0.6473,-0.69399 -0.89725,-1.37805 -0.27892,-0.76333 -0.1722,-0.26274 -0.27257,-0.95165 0.0222,0.0222 0.0353,0.0645 0.0667,0.0667 0.0207,0.001 0.006,-0.0438 -0.004,-0.062 -0.0845,-0.1549 -0.19807,-0.29358 -0.27666,-0.45156 -0.12,-0.24119 -0.34582,-0.9141 -0.41236,-1.147 -0.0639,-0.22381 -0.11114,-0.45248 -0.1667,-0.6785 -0.157,-0.63868 -0.0356,-1.11963 0.20413,-1.39911 -4.12941,-1.21965 -8.46141,-2.03346 -12.97569,-2.42914 l -2.44142,-0.21409 z m 16.85191,3.08483 c 0.0501,0.11019 0.0961,0.22945 0.13278,0.36733 0.15249,0.57395 0.27003,1.18494 0.54104,1.72198 0.21311,0.4223 0.0215,-0.55308 0.28017,0.51355 0.0495,0.2042 0.0444,0.41809 0.0667,0.62702 0.17698,0.24186 0.16924,0.78849 0.46384,0.86743 0.0409,0.0461 0.0817,0.0927 0.12283,0.13862 9e-4,-0.0406 0.0894,0.0669 0.13745,0.086 0.0169,0.007 -0.0501,-0.0518 -0.0351,-0.0415 0.66986,0.45673 0.34921,0.35299 0.70423,0.45213 0.22999,0.10566 0.45197,0.23154 0.6902,0.31703 0.43765,0.15703 0.89302,0.26024 1.3336,0.40885 1.17002,0.39465 1.48811,0.51382 1.4927,0.527 0.22117,0.0631 0.44451,0.1268 1.20901,0.35563 0.41157,0.12319 0.81269,0.2825 1.23007,0.38429 0.42844,0.10448 0.86791,0.15572 1.30201,0.23338 1.16905,0.22938 2.43145,0.31035 3.47965,0.93527 0.111,0.0662 0.23032,0.12506 0.31994,0.21818 0.14925,0.15505 0.25818,0.34481 0.38721,0.51706 0.0288,0.34842 0.0999,0.58361 0.0486,0.84286 0.0208,0.0359 0.01,0.15547 0.0257,0.20939 0.23002,0.76598 0.0494,0.0444 0.26613,1.00547 0.1932,1.05866 0.35453,2.13654 0.75687,3.14273 0.19639,0.49113 0.48491,0.94272 0.67441,1.43655 0.5842,1.52241 1.22004,3.7872 1.67636,5.3262 0.13904,0.50897 0.27832,1.0269 0.4188,1.54652 5.45375,5.71508 9.41249,12.70478 11.23733,20.4339 2.4974,10.57781 0.76631,22.29761 -4.67872,31.67592 -5.84756,10.07163 -15.85738,17.97992 -27.4587,21.69439 -3.46017,1.10787 -10.08296,2.38644 -12.36329,2.38644 h -1.31371 v 4.92263 4.9232 l 2.60988,-0.22987 c 14.2184,-1.25232 27.00287,-6.86785 36.66814,-16.10673 8.54428,-8.16733 13.51239,-16.7887 16.16814,-28.05589 0.88363,-3.74882 0.94698,-4.49676 0.94698,-11.25664 0,-6.75987 -0.0633,-7.50781 -0.94698,-11.25663 -2.5676,-10.89319 -7.66119,-19.87118 -15.61774,-27.52714 -6.59332,-6.34425 -14.32189,-10.95578 -22.97652,-13.74251 z"
         style="fill:#000000;fill-opacity:1;stroke:#000000;stroke-width:4.61837149;stroke-miterlimit:4;stroke-dasharray:none;stroke-opacity:1" />
      <text
         xml:space="preserve"
         style="font-style:normal;font-weight:normal;font-size:20.16259956px;line-height:1;font-family:sans-serif;letter-spacing:0px;word-spacing:0px;fill:#000000;fill-opacity:1;stroke:none;stroke-width:0.50406498"
         x="303.60529"
         y="598.13312"
         id="text132"><tspan
           sodipodi:role="line"
           x="303.60529"
           y="598.13312"
           id="tspan124"
           style="stroke-width:0.50406498"><tspan
             x="303.60529"
             y="598.13312"
             style="font-style:normal;font-variant:normal;font-weight:normal;font-stretch:normal;font-size:18.75px;line-height:1;font-family:Consolas;-inkscape-font-specification:Consolas;fill:#c8ab37;fill-opacity:1;stroke-width:0.50406498"
             id="tspan120">Koordinierte Förderinitiative zur Weiterentwicklung </tspan><tspan
             dx="0"
             x="840.61707"
             y="598.13312"
             style="font-style:normal;font-variant:normal;font-weight:normal;font-stretch:normal;font-size:18.75px;line-height:1;font-family:Consolas;-inkscape-font-specification:Consolas;fill:#c8ab37;fill-opacity:1;stroke-width:0.50406498"
             id="tspan122" /></tspan><tspan
           sodipodi:role="line"
           x="303.60529"
           y="618.29572"
           id="tspan130"
           style="stroke-width:0.50406498"><tspan
             x="303.60529"
             y="618.29572"
             style="font-style:normal;font-variant:normal;font-weight:normal;font-stretch:normal;font-size:18.75px;line-height:1;font-family:Consolas;-inkscape-font-specification:Consolas;fill:#c8ab37;fill-opacity:1;stroke-width:0.50406498"
             id="tspan126">von Verfahren der Optical Character Recognition (OCR)</tspan><tspan
             dx="0"
             x="850.94415"
             y="618.29572"
             style="font-style:normal;font-variant:normal;font-weight:normal;font-stretch:normal;font-size:18.75px;line-height:1;font-family:Consolas;-inkscape-font-specification:Consolas;fill:#c8ab37;fill-opacity:1;stroke-width:0.50406498"
             id="tspan128" /></tspan></text>
    </g>
  </g>
</svg>
